<?xml version="1.0" ?><!DOCTYPE svg  PUBLIC '-//W3C//DTD SVG 1.1//EN'  'http://www.w3.org/Graphics/SVG/1.1/DTD/svg11.dtd'><svg enable-background="new 0 0 64 64" height="64px" id="Livello_1" version="1.1" viewBox="0 0 64 64" width="64px" xml:space="preserve" xmlns="http://www.w3.org/2000/svg" xmlns:xlink="http://www.w3.org/1999/xlink"><path fill="#0f0f10" d="M46.79,32c0,8.154-6.636,14.789-14.791,14.789c-8.155,0-14.789-6.635-14.789-14.789c0-8.155,6.634-14.787,14.789-14.787  C40.154,17.213,46.79,23.845,46.79,32z M62,32c0,16.564-13.436,30-30,30C15.433,62,2,48.564,2,32C2,15.433,15.433,2,32,2  C48.564,2,62,15.433,62,32z M51.289,32c0-10.651-8.639-19.288-19.29-19.288c-10.651,0-19.29,8.636-19.29,19.288  c0,10.65,8.638,19.288,19.29,19.288C42.65,51.288,51.289,42.65,51.289,32z"/></svg>