<?xml version="1.0" ?><!DOCTYPE svg  PUBLIC '-//W3C//DTD SVG 1.1//EN'  'http://www.w3.org/Graphics/SVG/1.1/DTD/svg11.dtd'><svg enable-background="new 0 0 64 64" height="64px" id="Livello_1" version="1.1" viewBox="0 0 64 64" width="64px" xml:space="preserve" xmlns="http://www.w3.org/2000/svg" xmlns:xlink="http://www.w3.org/1999/xlink"><path fill="#0f0f10" d="M32,2C15.433,2,2,15.433,2,32c0,16.565,13.433,30,30,30s30-13.435,30-30C62,15.433,48.567,2,32,2z M49.129,45.948  c0.879,0.879,0.879,2.302,0,3.181c-0.439,0.439-1.013,0.659-1.591,0.659c-0.574,0-1.15-0.22-1.59-0.659L32,35.182L18.051,49.129  c-0.439,0.439-1.014,0.659-1.59,0.659c-0.574,0-1.152-0.22-1.591-0.659c-0.879-0.879-0.879-2.302,0-3.181L28.818,32L14.87,18.052  c-0.879-0.879-0.879-2.303,0-3.182s2.303-0.879,3.182,0L32,28.818L45.948,14.87c0.879-0.879,2.302-0.879,3.181,0  s0.879,2.303,0,3.182L35.182,32L49.129,45.948z"/></svg>