<?xml version="1.0" ?><!DOCTYPE svg  PUBLIC '-//W3C//DTD SVG 1.1//EN'  'http://www.w3.org/Graphics/SVG/1.1/DTD/svg11.dtd'><svg enable-background="new 0 0 64 64" height="64px" id="Livello_1" version="1.1" viewBox="0 0 64 64" width="64px" xml:space="preserve" xmlns="http://www.w3.org/2000/svg" xmlns:xlink="http://www.w3.org/1999/xlink"><path fill="#0f0f10" d="M32,20.139L45.158,43H18.842L32,20.139z M62,32c0,16.565-13.433,30-30,30C15.432,62,2,48.565,2,32C2,15.432,15.432,2,32,2  C48.567,2,62,15.432,62,32z M51.444,45.364L33.496,14.163c-0.412-0.715-0.953-1.081-1.496-1.081s-1.085,0.356-1.497,1.071  L12.557,45.365C11.733,46.795,12.41,48,14.06,48h35.88C51.591,48,52.266,46.793,51.444,45.364z"/></svg>